<?xml version="1.0" encoding="UTF-8" standalone="no"?>
<svg
   viewBox="51.523 70.411 138.4 50.76"
   version="1.1"
   id="svg1"
   sodipodi:docname="asa-motor.svg"
   xml:space="preserve"
   inkscape:version="1.4 (86a8ad7, 2024-10-11)"
   xmlns:inkscape="http://www.inkscape.org/namespaces/inkscape"
   xmlns:sodipodi="http://sodipodi.sourceforge.net/DTD/sodipodi-0.dtd"
   xmlns="http://www.w3.org/2000/svg"
   xmlns:svg="http://www.w3.org/2000/svg"><defs
     id="defs1" /><sodipodi:namedview
     id="namedview1"
     pagecolor="#ffffff"
     bordercolor="#000000"
     borderopacity="0.25"
     inkscape:showpageshadow="2"
     inkscape:pageopacity="0.0"
     inkscape:pagecheckerboard="0"
     inkscape:deskcolor="#d1d1d1"
     showgrid="false"
     inkscape:zoom="3.8063192"
     inkscape:cx="75.400928"
     inkscape:cy="79.604464"
     inkscape:window-width="1718"
     inkscape:window-height="1360"
     inkscape:window-x="-7"
     inkscape:window-y="0"
     inkscape:window-maximized="0"
     inkscape:current-layer="svg1" /><path
     id="path1"
     style="display:inline;stroke-width:0.616964"
     d="M 166.398 71.762563 C 165.89148 71.762563 165.41078 72.029745 165.17144 72.475453 L 151.03862 98.776234 C 150.82213 99.179339 150.84136 99.623276 151.09136 100.00866 C 151.34118 100.3942 151.78524 100.54772 152.26323 100.54772 L 162.71245 100.54772 L 160.46441 119.05553 C 160.38778 119.68303 160.79882 120.33467 161.43902 120.51452 C 161.57114 120.55159 161.70337 120.5692 161.8355 120.5692 C 162.34305 120.5692 162.82386 120.29551 163.06011 119.84655 L 177.19292 92.971547 C 177.40495 92.568442 177.38093 92.030432 177.13042 91.647328 C 176.87974 91.264387 176.43856 90.953969 175.96245 90.953969 L 165.64995 90.953969 L 167.76323 73.141469 C 167.83712 72.516405 167.42734 71.989607 166.79058 71.809438 C 166.65982 71.772363 166.52875 71.762563 166.398 71.762563 z M 160.8648 74.758656 C 149.80265 76.255785 141.26909 85.280429 141.26909 96.157094 C 141.26909 106.05714 148.33781 114.42381 157.94878 116.97545 L 158.58745 111.71764 C 151.72402 109.52943 146.76714 103.38094 146.76714 96.157094 C 146.76714 89.311473 151.22016 83.432779 157.52691 80.9735 L 160.8648 74.758656 z M 170.26909 75.336781 L 169.64409 80.5985 C 176.50358 82.788825 181.45659 88.935849 181.45659 96.157094 C 181.45659 103.04288 176.95296 108.95056 170.58745 111.38366 L 167.33941 117.55944 C 178.41186 116.07076 186.95464 107.04075 186.95464 96.157094 C 186.95464 86.255099 179.88333 77.88647 170.26909 75.336781 z M 67.544484 78.411 C 65.723822 78.411 64.085122 78.836298 62.628469 79.746938 C 61.111354 80.656959 60.14128 81.99056 59.595266 83.690297 L 51.523 109.66491 L 58.86675 109.72545 L 66.269094 86.604359 C 66.451099 85.875724 66.877377 85.512563 67.423391 85.512563 C 67.726937 85.512563 67.967948 85.632675 68.149953 85.815297 C 68.331957 86.057764 68.454724 86.300813 68.515187 86.604359 L 75.978078 109.72545 L 82.899953 109.72545 L 98.737844 109.72545 C 101.10452 109.72545 103.04698 108.75421 104.62456 106.81139 C 106.14168 104.93026 106.9312 102.68562 106.9312 100.13756 C 106.9312 94.979118 100.31706 91.336781 97.767141 91.336781 L 89.089406 91.336781 C 88.421851 91.336781 87.874588 91.032653 87.450734 90.547719 C 87.025645 90.001088 86.782766 89.395494 86.782766 88.666859 C 86.782766 87.817299 87.025645 87.088405 87.450734 86.481313 C 87.936285 85.874837 88.542412 85.512563 89.271047 85.512563 L 105.53472 85.512563 L 105.53472 79.018422 L 88.966359 79.018422 C 85.992591 79.018422 83.685096 79.928761 82.046437 81.688344 C 80.591018 83.327001 79.862844 85.510224 79.862844 88.119984 C 79.862844 90.668664 80.591019 92.915791 82.046437 94.735219 C 83.685096 96.737886 85.628981 97.770375 87.995656 97.770375 L 98.009328 97.770375 C 98.615187 97.770375 99.101014 97.952075 99.464406 98.436391 C 99.889494 98.921941 100.07183 99.529929 100.07183 100.19811 C 100.07183 100.9872 99.768317 101.71406 99.282766 102.32116 C 98.736753 102.86717 98.129223 103.17077 97.341359 103.17077 L 81.319875 103.17077 L 81.077687 102.74498 L 75.069875 83.448109 L 74.767141 82.840688 C 73.310488 79.866919 70.882261 78.411 67.544484 78.411 z M 121.49566 78.411 C 119.675 78.411 118.03763 78.836298 116.58159 79.746938 C 115.06324 80.656959 114.09173 81.99056 113.54448 83.690297 L 105.47417 109.66491 L 112.81792 109.72545 L 120.22027 86.604359 C 120.40228 85.875724 120.82855 85.512563 121.37456 85.512563 C 121.67811 85.512563 121.91911 85.632675 122.10112 85.815297 C 122.28436 86.057764 122.40466 86.300813 122.46636 86.604359 L 129.9312 109.72545 L 136.90972 109.72545 L 129.02105 83.448109 L 128.71831 82.840688 C 127.26165 79.866919 124.83344 78.411 121.49566 78.411 z " /><g
     style="fill:#000000"
     id="g1"
     transform="matrix(-0.17181784,0,0,-0.16260768,189.8976,120.56866)"><g
       id="g3">
	
	
	
</g></g></svg>
