<?xml version="1.0" encoding="UTF-8" standalone="no"?>
<svg
   viewBox="51.523 70.411 138.4 50.76"
   version="1.1"
   id="svg1"
   sodipodi:docname="asa_mlp_timet.svg"
   inkscape:version="1.4 (86a8ad7, 2024-10-11)"
   xmlns:inkscape="http://www.inkscape.org/namespaces/inkscape"
   xmlns:sodipodi="http://sodipodi.sourceforge.net/DTD/sodipodi-0.dtd"
   xmlns="http://www.w3.org/2000/svg"
   xmlns:svg="http://www.w3.org/2000/svg">
  <defs
     id="defs1" />
  <sodipodi:namedview
     id="namedview1"
     pagecolor="#ffffff"
     bordercolor="#000000"
     borderopacity="0.25"
     inkscape:showpageshadow="2"
     inkscape:pageopacity="0.0"
     inkscape:pagecheckerboard="0"
     inkscape:deskcolor="#d1d1d1"
     showgrid="false"
     inkscape:zoom="3.716909"
     inkscape:cx="54.884314"
     inkscape:cy="88.648928"
     inkscape:window-width="1344"
     inkscape:window-height="1211"
     inkscape:window-x="1500"
     inkscape:window-y="38"
     inkscape:window-maximized="0"
     inkscape:current-layer="svg1" />
  <g
     id="g2">
    <path
       id="path1"
       style="stroke-width:0.52824"
       d="M 65.24175 70.411 C 63.682912 70.411 62.279941 70.773895 61.032766 71.553578 C 59.733822 72.332733 58.900649 73.477181 58.433156 74.932484 L 51.523 97.168813 L 57.810109 97.221547 L 64.149953 77.426625 C 64.305783 76.802773 64.668788 76.491078 65.136281 76.491078 C 65.396175 76.491078 65.603497 76.594485 65.759328 76.750844 C 65.915159 76.958442 66.02006 77.166731 66.071828 77.426625 L 72.462453 97.221547 L 78.386281 97.221547 L 91.948781 97.221547 C 93.975112 97.221547 95.637134 96.390835 96.987844 94.727406 C 98.286788 93.116801 98.962453 91.194196 98.962453 89.012563 C 98.962453 84.595944 93.299968 81.477406 91.11675 81.477406 L 83.687062 81.477406 C 83.115507 81.477406 82.645667 81.218775 82.282766 80.803578 C 81.918808 80.335557 81.712453 79.816102 81.712453 79.19225 C 81.712453 78.464863 81.918808 77.840944 82.282766 77.321156 C 82.698491 76.801895 83.21946 76.491078 83.843312 76.491078 L 97.767141 76.491078 L 97.767141 70.930531 L 83.581594 70.930531 C 81.035475 70.930531 79.060773 71.709146 77.657766 73.215688 C 76.411647 74.618695 75.786672 76.489043 75.786672 78.7235 C 75.786672 80.905662 76.411647 82.829781 77.657766 84.387563 C 79.060773 86.102232 80.723233 86.985219 82.749562 86.985219 L 91.323781 86.985219 C 91.842513 86.985219 92.258742 87.142815 92.569875 87.557484 C 92.933833 87.973209 93.089406 88.49126 93.089406 89.063344 C 93.089406 89.738964 92.831304 90.363868 92.415578 90.883656 C 91.948086 91.351149 91.428032 91.610219 90.753469 91.610219 L 77.034719 91.610219 L 76.827687 91.246938 L 71.683156 74.7235 L 71.423391 74.203969 C 70.176215 71.657849 68.09953 70.411 65.24175 70.411 z M 111.43316 70.411 C 109.87432 70.411 108.47082 70.773895 107.22417 71.553578 C 105.92417 72.332733 105.09507 73.477181 104.62652 74.932484 L 97.716359 97.168813 L 104.00347 97.221547 L 110.34136 77.426625 C 110.49719 76.802773 110.86215 76.491078 111.32964 76.491078 C 111.58953 76.491078 111.79686 76.594485 111.95269 76.750844 C 112.10958 76.958442 112.21237 77.166731 112.26519 77.426625 L 118.65581 97.221547 L 124.63042 97.221547 L 117.87652 74.7235 L 117.61675 74.203969 C 116.36957 71.657849 114.29094 70.411 111.43316 70.411 z M 53.251516 99.313344 L 52.472219 116.41686 L 54.515188 116.41686 L 54.796438 105.93444 L 54.845266 101.65514 L 55.5855 104.29772 L 57.823781 110.84264 L 59.321828 110.84264 L 61.669484 104.036 L 62.411672 101.65514 L 62.544484 105.75084 L 62.860891 116.41686 L 64.978078 116.41686 L 64.2105 99.313344 L 61.571828 99.313344 L 59.321828 105.75084 L 58.651906 107.92272 L 57.958547 105.75084 L 55.817922 99.313344 L 53.251516 99.313344 z M 68.407766 99.313344 L 68.407766 116.41686 L 77.556203 116.41686 L 77.556203 114.42858 L 70.608937 114.42858 L 70.608937 99.313344 L 68.407766 99.313344 z M 81.192922 99.313344 L 81.192922 116.41686 L 83.358937 116.41686 L 83.358937 110.28014 L 85.329641 110.28014 C 86.432566 110.28014 87.380589 110.11362 88.175344 109.78209 C 88.970099 109.44183 89.623414 109.00075 90.134328 108.45983 C 90.645242 107.91891 91.021896 107.30831 91.265187 106.6278 C 91.50848 105.93856 91.630422 105.24569 91.630422 104.54772 C 91.630422 103.59675 91.468484 102.78891 91.144094 102.12584 C 90.819704 101.46278 90.381103 100.92157 89.829641 100.5028 C 89.286287 100.08402 88.65297 99.783668 87.931203 99.600453 C 87.209436 99.408514 86.45613 99.313344 85.669484 99.313344 L 81.192922 99.313344 z M 94.015187 99.313344 L 94.015187 101.30163 L 98.722219 101.30163 L 98.722219 116.41686 L 100.91167 116.41686 L 100.91167 101.30163 L 105.6187 101.30163 L 105.6187 99.313344 L 94.015187 99.313344 z M 83.358937 101.24889 L 85.571828 101.24889 C 86.77207 101.24889 87.705658 101.5413 88.370656 102.12584 C 89.043765 102.71039 89.380422 103.55194 89.380422 104.65123 C 89.380422 105.87267 89.030985 106.78557 88.333547 107.38756 C 87.644219 107.98956 86.659808 108.28991 85.378469 108.28991 L 83.358937 108.28991 L 83.358937 101.24889 z " />
  </g>
</svg>
